<svg width="33" height="33" viewBox="0 0 33 33" fill="none" xmlns="http://www.w3.org/2000/svg">
<path d="M18.4982 21.4435C18.4497 21.3955 18.3843 21.3686 18.3161 21.3686C18.2479 21.3686 18.1825 21.3955 18.134 21.4435L14.3893 25.1882C12.6555 26.922 9.72935 27.1057 7.81509 25.1882C5.89761 23.2707 6.0813 20.3478 7.81509 18.614L11.5598 14.8692C11.6597 14.7693 11.6597 14.605 11.5598 14.5051L10.2772 13.2225C10.2287 13.1745 10.1633 13.1476 10.0951 13.1476C10.0269 13.1476 9.96149 13.1745 9.91304 13.2225L6.16831 16.9672C3.44194 19.6936 3.44194 24.1054 6.16831 26.8285C8.89468 29.5517 13.3065 29.5549 16.0296 26.8285L19.7744 23.0838C19.8743 22.9839 19.8743 22.8195 19.7744 22.7196L18.4982 21.4435ZM26.832 6.16807C24.1056 3.4417 19.6938 3.4417 16.9707 6.16807L13.2227 9.91279C13.1747 9.96125 13.1478 10.0267 13.1478 10.0949C13.1478 10.1631 13.1747 10.2285 13.2227 10.277L14.5021 11.5563C14.602 11.6563 14.7664 11.6563 14.8663 11.5563L18.611 7.81162C20.3448 6.07783 23.2709 5.89414 25.1852 7.81162C27.1027 9.7291 26.919 12.6521 25.1852 14.3858L21.4405 18.1306C21.3925 18.179 21.3656 18.2445 21.3656 18.3126C21.3656 18.3808 21.3925 18.4463 21.4405 18.4947L22.7231 19.7773C22.823 19.8772 22.9874 19.8772 23.0873 19.7773L26.832 16.0326C29.5551 13.3063 29.5551 8.89443 26.832 6.16807ZM19.6616 11.9979C19.6131 11.9499 19.5477 11.923 19.4795 11.923C19.4113 11.923 19.3459 11.9499 19.2974 11.9979L11.9981 19.2939C11.9501 19.3424 11.9232 19.4078 11.9232 19.476C11.9232 19.5442 11.9501 19.6097 11.9981 19.6581L13.2743 20.9343C13.3742 21.0342 13.5385 21.0342 13.6384 20.9343L20.9345 13.6382C21.0344 13.5383 21.0344 13.3739 20.9345 13.274L19.6616 11.9979Z" fill="black"/>
</svg>
