<svg width="33" height="33" viewBox="0 0 33 33" fill="none" xmlns="http://www.w3.org/2000/svg">
<path d="M11.6016 5.92969H11.3438C11.4855 5.92969 11.6016 5.81367 11.6016 5.67188V5.92969H21.3984V5.67188C21.3984 5.81367 21.5145 5.92969 21.6562 5.92969H21.3984V8.25H23.7188V5.67188C23.7188 4.53428 22.7938 3.60938 21.6562 3.60938H11.3438C10.2062 3.60938 9.28125 4.53428 9.28125 5.67188V8.25H11.6016V5.92969ZM27.8438 8.25H5.15625C4.58584 8.25 4.125 8.71084 4.125 9.28125V10.3125C4.125 10.4543 4.24102 10.5703 4.38281 10.5703H6.3293L7.12529 27.4248C7.17686 28.5237 8.08564 29.3906 9.18457 29.3906H23.8154C24.9176 29.3906 25.8231 28.527 25.8747 27.4248L26.6707 10.5703H28.6172C28.759 10.5703 28.875 10.4543 28.875 10.3125V9.28125C28.875 8.71084 28.4142 8.25 27.8438 8.25ZM23.5673 27.0703H9.43272L8.65283 10.5703H24.3472L23.5673 27.0703Z" fill="black"/>
</svg>
