<svg width="33" height="33" viewBox="0 0 33 33" fill="none" xmlns="http://www.w3.org/2000/svg">
<path d="M12.0312 18.5625C11.275 19.3875 10.175 19.9375 8.9375 19.9375H6.875C4.60625 19.9375 2.75 18.0813 2.75 15.8125C2.75 13.5437 4.60625 11.6875 6.875 11.6875H8.9375C10.175 11.6875 11.275 12.2375 12.0312 13.0625H15.2625C14.2313 10.6562 11.7563 8.9375 8.9375 8.9375H6.875C3.09375 8.9375 0 12.0312 0 15.8125C0 19.5938 3.09375 22.6875 6.875 22.6875H8.9375C11.7563 22.6875 14.1625 20.9688 15.2625 18.5625H12.0312Z" fill="#1E1E1E"/>
<path d="M26.1248 8.9375H24.0623C21.2436 8.9375 18.8373 10.6562 17.7373 13.0625H20.9686C21.7248 12.2375 22.8248 11.6875 24.0623 11.6875H26.1248C28.3936 11.6875 30.2498 13.5437 30.2498 15.8125C30.2498 18.0813 28.3936 19.9375 26.1248 19.9375H24.0623C22.8248 19.9375 21.7248 19.3875 20.9686 18.5625H17.7373C18.7686 20.9688 21.2436 22.6875 24.0623 22.6875H26.1248C29.9061 22.6875 32.9998 19.5938 32.9998 15.8125C32.9998 12.0312 29.9061 8.9375 26.1248 8.9375Z" fill="#1E1E1E"/>
<path d="M13.4062 2.75L11 4.125L15.1938 9.69375L16.0875 9.14375L13.4062 2.75Z" fill="#1E1E1E"/>
<path d="M19.5938 2.75L22.0001 4.125L17.8063 9.69375L16.9126 9.14375L19.5938 2.75Z" fill="#1E1E1E"/>
<path d="M19.5938 30.2499L22.0001 28.8749L17.8063 23.3062L16.9126 23.8562L19.5938 30.2499Z" fill="#1E1E1E"/>
<path d="M13.4062 30.2499L11 28.8749L15.1938 23.3062L16.0875 23.8562L13.4062 30.2499Z" fill="#1E1E1E"/>
</svg>
