<svg width="33" height="33" viewBox="0 0 33 33" fill="none" xmlns="http://www.w3.org/2000/svg">
<path d="M29.5936 17.3862C30.1193 18.3842 30.4432 19.476 30.5468 20.5992C30.6503 21.7224 30.5315 22.855 30.1971 23.9323C29.8628 25.0096 29.3194 26.0104 28.598 26.8776C27.8767 27.7448 26.9915 28.4613 25.9931 28.9862L23.2357 30.439L22.5576 30.7956C21.9347 31.1235 21.2448 31.3037 20.5411 31.3226C19.8374 31.3414 19.1388 31.1983 18.4993 30.9042L7.73063 26.3036L8.74467 23.2952L15.1489 24.5323L11.8323 18.2301L6.49281 8.08442L9.09394 6.71595L14.4335 16.8645L15.7183 16.1888L13.3644 11.7128L15.9641 10.3451L18.318 14.8211L19.6028 14.1453L17.7853 10.6907L20.3865 9.32224L22.204 12.7768L23.4895 12.0951L22.2421 9.71773L24.8425 8.353L26.09 10.7303L29.5929 17.3884L29.5936 17.3862ZM4.72228 9.4536C4.18192 8.91277 3.8139 8.22397 3.66466 7.47416C3.51543 6.72435 3.59168 5.94713 3.88378 5.24061C4.17589 4.5341 4.67075 3.92995 5.30591 3.50444C5.94108 3.07894 6.68806 2.85113 7.45258 2.84979C8.07212 2.85049 8.68245 2.99978 9.23236 3.28514C9.78227 3.5705 10.2557 3.9836 10.6129 4.48977C10.9702 4.99595 11.2008 5.58042 11.2854 6.19416C11.3701 6.80789 11.3062 7.43297 11.0993 8.01694L11.7818 9.30684C12.2382 8.54159 12.4839 7.66911 12.4939 6.77811C12.5038 5.88711 12.2777 5.00937 11.8384 4.23412C11.3991 3.45888 10.7623 2.81378 9.99289 2.36442C9.22344 1.91506 8.34872 1.67746 7.45767 1.67578C6.15194 1.67596 4.89719 2.18265 3.95747 3.08922C3.01776 3.99579 2.46635 5.23154 2.41929 6.53643C2.37224 7.84131 2.8332 9.11357 3.70518 10.0855C4.57716 11.0574 5.79215 11.6531 7.09448 11.7474L6.40837 10.4427C5.77056 10.2637 5.18978 9.92297 4.72228 9.4536Z" fill="black"/>
</svg>
