<svg width="400" height="400" viewBox="0 0 400 400" fill="none" xmlns="http://www.w3.org/2000/svg">
<path d="M264.77 11.3512C257.483 15.9537 251.346 22.8575 250.579 26.6929C248.661 37.0486 260.551 38.9663 270.523 29.7613C282.413 18.6385 288.166 19.4056 302.357 35.898L314.631 50.4727L315.014 36.2815C315.014 25.5423 312.329 20.1727 303.124 12.5018C288.55 0.228408 281.646 -0.155136 264.77 11.3512Z" fill="url(#paint0_linear_16_26)"/>
<path d="M336.876 19.405C333.808 26.6924 342.629 33.5962 349.149 29.3772C355.67 25.5417 351.834 14.0354 344.163 14.0354C341.478 14.0354 338.026 16.3367 336.876 19.405Z" fill="url(#paint1_linear_16_26)"/>
<path d="M285.097 47.0206C274.741 54.3079 274.358 64.2801 284.33 73.4851C292.001 80.3889 292.384 80.3889 302.74 70.4168L313.096 60.0611L303.507 50.4725C294.302 41.651 293.151 41.2675 285.097 47.0206Z" fill="url(#paint2_linear_16_26)"/>
<path d="M54.5878 51.2398C35.4106 61.2119 26.2056 75.7866 24.6714 99.1828C23.5208 114.908 25.055 122.195 30.8081 132.168C40.7803 147.893 60.341 159.783 76.4498 159.783C90.641 159.783 140.118 183.179 145.104 192.384C148.173 197.754 150.857 197.37 167.35 190.083L185.76 182.028L165.816 170.522C137.817 154.03 133.598 146.359 136.666 116.442C139.735 87.2929 133.214 68.8828 114.421 55.4588C98.6954 44.336 71.4638 42.4183 54.5878 51.2398ZM103.681 81.5397C128.228 112.99 88.7232 152.495 59.9575 125.264C47.684 113.757 46.917 93.0461 58.8068 80.3891C70.6967 67.7322 93.3258 68.1157 103.681 81.5397ZM132.831 158.249C140.502 170.138 133.981 170.522 112.886 160.166C104.832 155.947 94.8599 151.728 90.641 150.194C83.7372 147.893 84.8878 146.742 97.1612 140.222C105.216 136.387 113.654 129.099 116.338 124.113C120.557 116.059 120.941 116.442 124.009 132.551C125.543 141.756 129.379 153.262 132.831 158.249Z" fill="url(#paint3_linear_16_26)"/>
<path d="M322.685 52.7733C322.685 62.3619 335.342 61.2113 337.259 51.2391C338.026 46.6366 336.109 44.7189 330.739 44.7189C324.986 44.7189 322.685 47.0202 322.685 52.7733Z" fill="url(#paint4_linear_16_26)"/>
<path d="M204.553 72.7175C184.609 93.0454 180.774 98.7985 180.774 109.921C181.157 124.88 186.143 133.317 199.184 140.221C208.772 145.207 224.881 143.29 233.703 136.002C241.757 129.098 231.785 121.428 218.361 124.112C209.539 126.03 205.32 124.88 201.102 119.51C198.417 115.291 196.115 110.688 196.115 108.771C196.115 106.853 205.704 95.3466 217.594 83.0732C231.785 68.4986 238.305 58.1429 237.155 54.3074C235.62 51.2391 233.319 48.5543 231.785 48.5543C229.867 48.5543 217.594 59.2935 204.553 72.7175Z" fill="url(#paint5_linear_16_26)"/>
<path d="M261.318 77.7037C257.099 82.3062 257.483 84.6075 262.469 89.9771C268.605 95.7303 269.372 95.7303 275.509 89.9771C280.495 84.6075 280.879 82.3062 276.66 77.7037C273.975 74.2518 270.523 71.567 268.989 71.567C267.455 71.567 264.003 74.2518 261.318 77.7037Z" fill="url(#paint6_linear_16_26)"/>
<path d="M312.712 77.3201C310.028 84.2239 313.863 90.7441 320.767 90.7441C327.671 90.7441 330.739 81.1555 325.369 75.7859C319.616 70.0328 315.014 70.4163 312.712 77.3201Z" fill="url(#paint7_linear_16_26)"/>
<path d="M234.469 96.4984L225.264 106.471L235.62 116.443C245.592 126.415 245.976 126.415 253.646 119.511C263.235 110.69 263.619 101.484 254.413 93.43C245.208 84.9921 245.208 84.9921 234.469 96.4984Z" fill="url(#paint8_linear_16_26)"/>
<path d="M290.851 101.1C285.098 106.47 288.166 117.592 295.453 117.592C304.275 117.592 308.494 108.771 302.357 102.634C297.371 97.648 294.303 97.2645 290.851 101.1Z" fill="url(#paint9_linear_16_26)"/>
<path d="M311.178 134.468C280.495 145.591 147.405 207.725 140.501 213.862C128.995 224.217 96.3939 236.874 77.9838 238.792C54.5876 241.093 40.013 249.915 31.1914 267.174C21.6029 286.352 21.6029 307.83 31.1914 323.939C54.5876 362.293 111.736 360.375 132.063 320.87C137.433 310.515 138.584 302.077 136.666 284.434C135.515 267.941 136.282 259.503 140.118 254.517C143.186 250.682 196.499 225.752 259.016 198.52C321.534 171.672 373.313 148.659 374.847 147.509C377.148 145.207 336.876 129.099 329.205 129.099C326.52 129.482 318.466 131.783 311.178 134.468ZM323.452 154.029C323.452 158.631 219.128 206.574 211.841 205.04C197.649 202.355 207.238 192 234.47 180.493C250.195 173.59 270.139 165.152 278.577 161.316C304.658 149.81 323.068 146.742 323.452 154.029ZM192.28 203.89C196.115 208.492 196.115 210.793 192.28 215.396C186.143 222.683 177.322 222.683 174.637 215.396C172.336 209.643 178.856 198.136 184.609 198.136C186.143 198.136 189.595 200.821 192.28 203.89ZM167.35 221.149C168.884 223.45 163.898 227.669 156.994 230.354C141.652 236.874 127.461 251.449 125.16 263.339C122.858 275.229 122.858 275.229 108.284 263.339C94.0926 251.449 94.8597 246.079 110.969 242.244C116.722 241.093 128.228 234.957 136.666 228.82C152.775 217.314 163.514 214.629 167.35 221.149ZM67.6281 248.764C63.4091 251.065 54.2041 257.969 47.6838 264.49C40.78 271.01 35.0269 274.462 35.0269 272.544C35.0269 265.257 61.875 244.545 71.4636 244.545C73.7648 244.545 71.8471 246.463 67.6281 248.764ZM102.147 272.927C121.324 291.721 108.667 324.706 81.8192 324.706C63.4091 324.706 50.3686 312.432 50.3686 294.406C50.3686 266.024 82.2028 252.6 102.147 272.927Z" fill="#2389DD"/>
<path d="M216.059 225.752L199.183 233.423L240.989 256.435C309.26 294.79 323.068 301.693 331.889 301.693C341.094 301.693 376.38 289.804 375.997 286.735C375.613 283.283 240.989 216.547 236.387 217.314C234.469 217.697 224.881 221.533 216.059 225.752ZM323.068 271.01C324.985 271.01 326.52 272.544 326.52 274.845C326.52 276.763 329.204 278.681 332.656 278.681C336.108 278.681 338.026 280.982 336.875 283.283C334.958 289.036 319.999 287.886 309.26 280.598C305.041 277.914 287.782 268.325 270.906 259.504C231.017 238.025 227.949 235.724 236.77 232.655C240.989 231.121 257.482 237.642 281.261 250.682C302.356 261.805 321.15 271.01 323.068 271.01Z" fill="#2270D4"/>
<path d="M190.362 269.091C183.458 275.612 180.774 282.515 180.774 292.488C180.774 304.761 184.993 310.514 218.361 345.8C238.689 367.279 261.318 387.99 268.605 391.825C280.879 397.962 282.413 397.962 294.686 392.209C301.59 388.757 308.877 382.237 310.795 377.634C315.014 366.895 313.096 364.21 305.809 370.347C302.741 373.032 298.138 374.182 296.22 373.032C294.303 371.498 291.618 372.265 290.084 374.566C284.331 384.155 271.29 376.1 240.223 342.732C195.348 295.556 193.047 292.104 201.869 282.515C211.074 272.16 214.909 272.927 229.1 286.734C236.004 293.255 243.291 297.474 245.593 296.323C253.647 291.337 249.812 279.447 236.771 269.475C219.895 256.818 202.636 256.434 190.362 269.091Z" fill="url(#paint10_linear_16_26)"/>
<path d="M263.619 316.48C257.866 323.384 257.866 324.151 264.386 329.904C271.29 336.041 272.057 336.041 278.577 328.753C283.947 322.617 284.33 320.316 280.495 315.329C274.358 308.042 271.673 308.042 263.619 316.48Z" fill="url(#paint11_linear_16_26)"/>
<path d="M288.932 334.889C278.193 342.176 278.193 352.148 288.549 361.737C296.987 369.408 305.041 366.723 312.712 354.449C315.78 349.463 314.63 346.011 307.342 338.341C298.137 329.519 296.987 329.135 288.932 334.889Z" fill="url(#paint12_linear_16_26)"/>
<defs>
<linearGradient id="paint0_linear_16_26" x1="282.694" y1="2.99982" x2="282.694" y2="50.4727" gradientUnits="userSpaceOnUse">
<stop stop-color="#22C2F2"/>
<stop offset="1" stop-color="#22A3E4"/>
</linearGradient>
<linearGradient id="paint1_linear_16_26" x1="344.359" y1="14.0354" x2="344.359" y2="30.6631" gradientUnits="userSpaceOnUse">
<stop stop-color="#22C2F2"/>
<stop offset="1" stop-color="#22A3E4"/>
</linearGradient>
<linearGradient id="paint2_linear_16_26" x1="295.09" y1="43.1858" x2="295.09" y2="78.332" gradientUnits="userSpaceOnUse">
<stop stop-color="#22C2F2"/>
<stop offset="1" stop-color="#22A3E4"/>
</linearGradient>
<linearGradient id="paint3_linear_16_26" x1="39" y1="46" x2="165" y2="179" gradientUnits="userSpaceOnUse">
<stop stop-color="#25CFF3"/>
<stop offset="0.716346" stop-color="#239EE2"/>
</linearGradient>
<linearGradient id="paint4_linear_16_26" x1="330.053" y1="44.7189" x2="330.053" y2="59.376" gradientUnits="userSpaceOnUse">
<stop stop-color="#22C2F2"/>
<stop offset="1" stop-color="#22A3E4"/>
</linearGradient>
<linearGradient id="paint5_linear_16_26" x1="209.029" y1="48.5543" x2="209.029" y2="142.999" gradientUnits="userSpaceOnUse">
<stop stop-color="#22C2F2"/>
<stop offset="1" stop-color="#22A3E4"/>
</linearGradient>
<linearGradient id="paint6_linear_16_26" x1="268.989" y1="71.567" x2="268.989" y2="94.292" gradientUnits="userSpaceOnUse">
<stop stop-color="#22C2F2"/>
<stop offset="1" stop-color="#22A3E4"/>
</linearGradient>
<linearGradient id="paint7_linear_16_26" x1="319.977" y1="71.7794" x2="319.977" y2="90.7441" gradientUnits="userSpaceOnUse">
<stop stop-color="#22C2F2"/>
<stop offset="1" stop-color="#22A3E4"/>
</linearGradient>
<linearGradient id="paint8_linear_16_26" x1="243.174" y1="87.4407" x2="243.174" y2="124.358" gradientUnits="userSpaceOnUse">
<stop stop-color="#22C2F2"/>
<stop offset="1" stop-color="#22A3E4"/>
</linearGradient>
<linearGradient id="paint9_linear_16_26" x1="296.555" y1="98.5198" x2="296.555" y2="117.592" gradientUnits="userSpaceOnUse">
<stop stop-color="#22C2F2"/>
<stop offset="1" stop-color="#22A3E4"/>
</linearGradient>
<linearGradient id="paint10_linear_16_26" x1="246.888" y1="259.788" x2="246.888" y2="396.477" gradientUnits="userSpaceOnUse">
<stop stop-color="#1E75D6"/>
<stop offset="1" stop-color="#1C4CCC"/>
</linearGradient>
<linearGradient id="paint11_linear_16_26" x1="271.219" y1="310" x2="271.219" y2="334.372" gradientUnits="userSpaceOnUse">
<stop stop-color="#1E75D6"/>
<stop offset="1" stop-color="#1C4CCC"/>
</linearGradient>
<linearGradient id="paint12_linear_16_26" x1="297.566" y1="331.054" x2="297.566" y2="366.038" gradientUnits="userSpaceOnUse">
<stop stop-color="#1E75D6"/>
<stop offset="1" stop-color="#1C4CCC"/>
</linearGradient>
</defs>
</svg>
